<?xml version="1.0" encoding="utf-8"?>
<!-- Generator: Adobe Illustrator 16.0.0, SVG Export Plug-In . SVG Version: 6.00 Build 0)  -->
<!DOCTYPE svg PUBLIC "-//W3C//DTD SVG 1.1//EN" "http://www.w3.org/Graphics/SVG/1.1/DTD/svg11.dtd">
<svg version="1.1" id="Ebene_1" xmlns="http://www.w3.org/2000/svg" xmlns:xlink="http://www.w3.org/1999/xlink" x="0px" y="0px"
	 width="1700.79px" height="850.39px" viewBox="0 0 1700.79 850.39" enable-background="new 0 0 1700.79 850.39"
	 xml:space="preserve">
<g>
	<path fill="#FFFFFF" stroke="#000000" stroke-width="0.0283" stroke-miterlimit="10" d="M1040.511,261.705
		c11.07,11.07,29.098,10.99,40.168-0.08s11.07-29.018,0-40.088L919.554,61.265H466.011c-15.655,0-28.347,12.691-28.347,28.347
		s12.691,28.347,28.347,28.347h430.754L1040.511,261.705"/>
	<circle fill="#FFFFFF" stroke="#000000" stroke-width="0.0283" stroke-miterlimit="10" cx="465.888" cy="89.674" r="8.504"/>
	<circle fill="#FFFFFF" stroke="#000000" stroke-width="0.0283" stroke-miterlimit="10" cx="863.464" cy="89.674" r="8.504"/>
	<circle fill="#FFFFFF" stroke="#000000" stroke-width="0.0283" stroke-miterlimit="10" cx="960.646" cy="141.729" r="7.086"/>
	<circle fill="#FFFFFF" stroke="#000000" stroke-width="0.0283" stroke-miterlimit="10" cx="994.063" cy="175.146" r="7.086"/>
	<circle fill="#FFFFFF" stroke="#000000" stroke-width="0.0283" stroke-miterlimit="10" cx="1027.48" cy="208.563" r="7.087"/>
	<circle fill="#FFFFFF" stroke="#000000" stroke-width="0.0283" stroke-miterlimit="10" cx="664.676" cy="89.725" r="7.086"/>
	<circle fill="#FFFFFF" stroke="#000000" stroke-width="0.0283" stroke-miterlimit="10" cx="711.936" cy="89.725" r="7.086"/>
	<circle fill="#FFFFFF" stroke="#000000" stroke-width="0.0283" stroke-miterlimit="10" cx="759.195" cy="89.725" r="7.086"/>
	<circle fill="#FFFFFF" stroke="#000000" stroke-width="0.0283" stroke-miterlimit="10" cx="570.157" cy="89.725" r="7.087"/>
	<circle fill="#FFFFFF" stroke="#000000" stroke-width="0.0283" stroke-miterlimit="10" cx="617.416" cy="89.725" r="7.086"/>
</g>
<g>
	<path fill="#FFFFFF" stroke="#000000" stroke-width="0.0283" stroke-miterlimit="10" d="M1013.512,328.849
		c11.07,11.07,29.098,10.99,40.168-0.08s11.07-29.018,0-40.088L892.555,128.409H439.012c-15.655,0-28.347,12.691-28.347,28.347
		s12.691,28.347,28.347,28.347h430.754L1013.512,328.849"/>
	<circle fill="#FFFFFF" stroke="#000000" stroke-width="0.0283" stroke-miterlimit="10" cx="438.889" cy="156.818" r="8.504"/>
	<circle fill="#FFFFFF" stroke="#000000" stroke-width="0.0283" stroke-miterlimit="10" cx="836.465" cy="156.818" r="8.504"/>
	<circle fill="#FFFFFF" stroke="#000000" stroke-width="0.0283" stroke-miterlimit="10" cx="933.646" cy="208.873" r="7.086"/>
	<circle fill="#FFFFFF" stroke="#000000" stroke-width="0.0283" stroke-miterlimit="10" cx="967.064" cy="242.29" r="7.086"/>
	<circle fill="#FFFFFF" stroke="#000000" stroke-width="0.0283" stroke-miterlimit="10" cx="1000.481" cy="275.708" r="7.087"/>
	<circle fill="#FFFFFF" stroke="#000000" stroke-width="0.0283" stroke-miterlimit="10" cx="637.677" cy="156.869" r="7.086"/>
	<circle fill="#FFFFFF" stroke="#000000" stroke-width="0.0283" stroke-miterlimit="10" cx="684.937" cy="156.869" r="7.086"/>
	<circle fill="#FFFFFF" stroke="#000000" stroke-width="0.0283" stroke-miterlimit="10" cx="732.196" cy="156.869" r="7.086"/>
	<circle fill="#FFFFFF" stroke="#000000" stroke-width="0.0283" stroke-miterlimit="10" cx="543.158" cy="156.869" r="7.087"/>
	<circle fill="#FFFFFF" stroke="#000000" stroke-width="0.0283" stroke-miterlimit="10" cx="590.417" cy="156.869" r="7.086"/>
</g>
<g>
	<path fill="#FFFFFF" stroke="#000000" stroke-width="0.0283" stroke-miterlimit="10" d="M986.513,395.993
		c11.07,11.07,29.098,10.99,40.168-0.08s11.07-29.018,0-40.088L865.556,195.553H412.013c-15.655,0-28.347,12.691-28.347,28.347
		s12.691,28.347,28.347,28.347h430.754L986.513,395.993"/>
	<circle fill="#FFFFFF" stroke="#000000" stroke-width="0.0283" stroke-miterlimit="10" cx="411.89" cy="223.962" r="8.504"/>
	<circle fill="#FFFFFF" stroke="#000000" stroke-width="0.0283" stroke-miterlimit="10" cx="809.466" cy="223.962" r="8.504"/>
	<circle fill="#FFFFFF" stroke="#000000" stroke-width="0.0283" stroke-miterlimit="10" cx="906.647" cy="276.017" r="7.086"/>
	<circle fill="#FFFFFF" stroke="#000000" stroke-width="0.0283" stroke-miterlimit="10" cx="940.065" cy="309.434" r="7.086"/>
	<circle fill="#FFFFFF" stroke="#000000" stroke-width="0.0283" stroke-miterlimit="10" cx="973.482" cy="342.852" r="7.087"/>
	<circle fill="#FFFFFF" stroke="#000000" stroke-width="0.0283" stroke-miterlimit="10" cx="610.678" cy="224.013" r="7.086"/>
	<circle fill="#FFFFFF" stroke="#000000" stroke-width="0.0283" stroke-miterlimit="10" cx="657.938" cy="224.013" r="7.086"/>
	<circle fill="#FFFFFF" stroke="#000000" stroke-width="0.0283" stroke-miterlimit="10" cx="705.197" cy="224.013" r="7.086"/>
	<circle fill="#FFFFFF" stroke="#000000" stroke-width="0.0283" stroke-miterlimit="10" cx="516.159" cy="224.013" r="7.087"/>
	<circle fill="#FFFFFF" stroke="#000000" stroke-width="0.0283" stroke-miterlimit="10" cx="563.418" cy="224.013" r="7.086"/>
</g>
<g>
	<path fill="#FFFFFF" stroke="#000000" stroke-width="0.0283" stroke-miterlimit="10" d="M959.514,463.137
		c11.07,11.07,29.098,10.99,40.168-0.08c11.07-11.069,11.07-29.018,0-40.088L838.557,262.697H385.014
		c-15.655,0-28.347,12.691-28.347,28.347s12.691,28.347,28.347,28.347h430.754L959.514,463.137"/>
	<circle fill="#FFFFFF" stroke="#000000" stroke-width="0.0283" stroke-miterlimit="10" cx="384.891" cy="291.106" r="8.504"/>
	<circle fill="#FFFFFF" stroke="#000000" stroke-width="0.0283" stroke-miterlimit="10" cx="782.467" cy="291.106" r="8.504"/>
	<circle fill="#FFFFFF" stroke="#000000" stroke-width="0.0283" stroke-miterlimit="10" cx="879.648" cy="343.161" r="7.086"/>
	<circle fill="#FFFFFF" stroke="#000000" stroke-width="0.0283" stroke-miterlimit="10" cx="913.066" cy="376.578" r="7.086"/>
	<circle fill="#FFFFFF" stroke="#000000" stroke-width="0.0283" stroke-miterlimit="10" cx="946.483" cy="409.996" r="7.087"/>
	<circle fill="#FFFFFF" stroke="#000000" stroke-width="0.0283" stroke-miterlimit="10" cx="583.679" cy="291.157" r="7.086"/>
	<circle fill="#FFFFFF" stroke="#000000" stroke-width="0.0283" stroke-miterlimit="10" cx="630.938" cy="291.157" r="7.086"/>
	<circle fill="#FFFFFF" stroke="#000000" stroke-width="0.0283" stroke-miterlimit="10" cx="678.198" cy="291.157" r="7.086"/>
	<circle fill="#FFFFFF" stroke="#000000" stroke-width="0.0283" stroke-miterlimit="10" cx="489.16" cy="291.157" r="7.087"/>
	<circle fill="#FFFFFF" stroke="#000000" stroke-width="0.0283" stroke-miterlimit="10" cx="536.419" cy="291.157" r="7.086"/>
</g>
<g>
	<path fill="#FFFFFF" stroke="#000000" stroke-width="0.0283" stroke-miterlimit="10" d="M932.515,530.281
		c11.07,11.07,29.098,10.99,40.168-0.08s11.07-29.018,0-40.088L811.558,329.841H358.015c-15.655,0-28.347,12.691-28.347,28.347
		s12.691,28.347,28.347,28.347h430.754L932.515,530.281"/>
	<circle fill="#FFFFFF" stroke="#000000" stroke-width="0.0283" stroke-miterlimit="10" cx="357.892" cy="358.25" r="8.504"/>
	<circle fill="#FFFFFF" stroke="#000000" stroke-width="0.0283" stroke-miterlimit="10" cx="755.468" cy="358.25" r="8.504"/>
	<circle fill="#FFFFFF" stroke="#000000" stroke-width="0.0283" stroke-miterlimit="10" cx="852.649" cy="410.305" r="7.086"/>
	<circle fill="#FFFFFF" stroke="#000000" stroke-width="0.0283" stroke-miterlimit="10" cx="886.067" cy="443.723" r="7.086"/>
	<circle fill="#FFFFFF" stroke="#000000" stroke-width="0.0283" stroke-miterlimit="10" cx="919.484" cy="477.14" r="7.087"/>
	<circle fill="#FFFFFF" stroke="#000000" stroke-width="0.0283" stroke-miterlimit="10" cx="556.68" cy="358.301" r="7.086"/>
	<circle fill="#FFFFFF" stroke="#000000" stroke-width="0.0283" stroke-miterlimit="10" cx="603.939" cy="358.301" r="7.086"/>
	<circle fill="#FFFFFF" stroke="#000000" stroke-width="0.0283" stroke-miterlimit="10" cx="651.199" cy="358.301" r="7.086"/>
	<circle fill="#FFFFFF" stroke="#000000" stroke-width="0.0283" stroke-miterlimit="10" cx="462.161" cy="358.301" r="7.087"/>
	<circle fill="#FFFFFF" stroke="#000000" stroke-width="0.0283" stroke-miterlimit="10" cx="509.42" cy="358.301" r="7.086"/>
</g>
<g>
	<path fill="#FFFFFF" stroke="#000000" stroke-width="0.0283" stroke-miterlimit="10" d="M722.121,582.057
		c0,6.535-5.299,11.834-11.834,11.834H444.2c-6.537,0-11.835-5.299-11.835-11.834v-33.025c0-6.535,5.298-11.834,11.835-11.834
		h266.087c6.535,0,11.834,5.299,11.834,11.834V582.057z"/>
	<circle fill="#FFFFFF" stroke="#000000" stroke-width="0.0283" stroke-miterlimit="10" cx="577.244" cy="565.544" r="7.087"/>
	<circle fill="#FFFFFF" stroke="#000000" stroke-width="0.0283" stroke-miterlimit="10" cx="624.503" cy="565.544" r="7.086"/>
	<circle fill="#FFFFFF" stroke="#000000" stroke-width="0.0283" stroke-miterlimit="10" cx="671.763" cy="565.544" r="7.086"/>
	<circle fill="#FFFFFF" stroke="#000000" stroke-width="0.0283" stroke-miterlimit="10" cx="482.725" cy="565.544" r="7.086"/>
	<circle fill="#FFFFFF" stroke="#000000" stroke-width="0.0283" stroke-miterlimit="10" cx="529.984" cy="565.544" r="7.086"/>
</g>
<g>
	<path fill="#FFFFFF" stroke="#000000" stroke-width="0.0283" stroke-miterlimit="10" d="M411.543,582.057
		c0,6.535-5.299,11.834-11.834,11.834H133.622c-6.537,0-11.835-5.299-11.835-11.834v-33.025c0-6.535,5.298-11.834,11.835-11.834
		h266.087c6.535,0,11.834,5.299,11.834,11.834V582.057z"/>
	<circle fill="#FFFFFF" stroke="#000000" stroke-width="0.0283" stroke-miterlimit="10" cx="266.666" cy="565.544" r="7.087"/>
	<circle fill="#FFFFFF" stroke="#000000" stroke-width="0.0283" stroke-miterlimit="10" cx="313.925" cy="565.544" r="7.086"/>
	<circle fill="#FFFFFF" stroke="#000000" stroke-width="0.0283" stroke-miterlimit="10" cx="361.185" cy="565.544" r="7.086"/>
	<circle fill="#FFFFFF" stroke="#000000" stroke-width="0.0283" stroke-miterlimit="10" cx="172.146" cy="565.544" r="7.086"/>
	<circle fill="#FFFFFF" stroke="#000000" stroke-width="0.0283" stroke-miterlimit="10" cx="219.406" cy="565.544" r="7.086"/>
</g>
<g>
	<path fill="#FFFFFF" stroke="#000000" stroke-width="0.0283" stroke-miterlimit="10" d="M809.239,650.547
		c0,6.535-5.299,11.834-11.834,11.834H531.318c-6.537,0-11.835-5.299-11.835-11.834v-33.025c0-6.535,5.298-11.834,11.835-11.834
		h266.087c6.535,0,11.834,5.299,11.834,11.834V650.547z"/>
	<circle fill="#FFFFFF" stroke="#000000" stroke-width="0.0283" stroke-miterlimit="10" cx="664.362" cy="634.034" r="7.087"/>
	<circle fill="#FFFFFF" stroke="#000000" stroke-width="0.0283" stroke-miterlimit="10" cx="711.621" cy="634.034" r="7.086"/>
	<circle fill="#FFFFFF" stroke="#000000" stroke-width="0.0283" stroke-miterlimit="10" cx="758.881" cy="634.034" r="7.086"/>
	<circle fill="#FFFFFF" stroke="#000000" stroke-width="0.0283" stroke-miterlimit="10" cx="569.843" cy="634.034" r="7.086"/>
	<circle fill="#FFFFFF" stroke="#000000" stroke-width="0.0283" stroke-miterlimit="10" cx="617.103" cy="634.034" r="7.086"/>
</g>
<g>
	<path fill="#FFFFFF" stroke="#000000" stroke-width="0.0283" stroke-miterlimit="10" d="M498.661,650.547
		c0,6.535-5.299,11.834-11.834,11.834H220.74c-6.537,0-11.835-5.299-11.835-11.834v-33.025c0-6.535,5.298-11.834,11.835-11.834
		h266.087c6.535,0,11.834,5.299,11.834,11.834V650.547z"/>
	<circle fill="#FFFFFF" stroke="#000000" stroke-width="0.0283" stroke-miterlimit="10" cx="353.784" cy="634.034" r="7.087"/>
	<circle fill="#FFFFFF" stroke="#000000" stroke-width="0.0283" stroke-miterlimit="10" cx="401.043" cy="634.034" r="7.086"/>
	<circle fill="#FFFFFF" stroke="#000000" stroke-width="0.0283" stroke-miterlimit="10" cx="448.303" cy="634.034" r="7.086"/>
	<circle fill="#FFFFFF" stroke="#000000" stroke-width="0.0283" stroke-miterlimit="10" cx="259.265" cy="634.034" r="7.086"/>
	<circle fill="#FFFFFF" stroke="#000000" stroke-width="0.0283" stroke-miterlimit="10" cx="306.524" cy="634.034" r="7.086"/>
</g>
<g>
	<path fill="#FFFFFF" stroke="#000000" stroke-width="0.0283" stroke-miterlimit="10" d="M863.934,723.741
		c0,6.535-5.299,11.834-11.834,11.834H586.013c-6.537,0-11.835-5.299-11.835-11.834v-33.025c0-6.535,5.298-11.834,11.835-11.834
		H852.1c6.535,0,11.834,5.299,11.834,11.834V723.741z"/>
	<circle fill="#FFFFFF" stroke="#000000" stroke-width="0.0283" stroke-miterlimit="10" cx="719.056" cy="707.229" r="7.087"/>
	<circle fill="#FFFFFF" stroke="#000000" stroke-width="0.0283" stroke-miterlimit="10" cx="766.315" cy="707.229" r="7.086"/>
	<circle fill="#FFFFFF" stroke="#000000" stroke-width="0.0283" stroke-miterlimit="10" cx="813.575" cy="707.229" r="7.086"/>
	<circle fill="#FFFFFF" stroke="#000000" stroke-width="0.0283" stroke-miterlimit="10" cx="624.537" cy="707.229" r="7.086"/>
	<circle fill="#FFFFFF" stroke="#000000" stroke-width="0.0283" stroke-miterlimit="10" cx="671.797" cy="707.229" r="7.086"/>
</g>
<g>
	<path fill="#FFFFFF" stroke="#000000" stroke-width="0.0283" stroke-miterlimit="10" d="M1082.277,468.419
		c5.965,2.671,8.635,9.673,5.962,15.637L979.472,726.897c-2.672,5.966-9.674,8.635-15.637,5.964l-30.141-13.5
		c-5.965-2.671-8.636-9.673-5.964-15.639l108.769-242.841c2.672-5.964,9.674-8.634,15.638-5.963L1082.277,468.419z"/>
	<circle fill="#FFFFFF" stroke="#000000" stroke-width="0.0283" stroke-miterlimit="10" cx="1007.986" cy="593.889" r="7.087"/>
	<circle fill="#FFFFFF" stroke="#000000" stroke-width="0.0283" stroke-miterlimit="10" cx="1027.304" cy="550.759" r="7.086"/>
	<circle fill="#FFFFFF" stroke="#000000" stroke-width="0.0283" stroke-miterlimit="10" cx="1046.622" cy="507.628" r="7.086"/>
	<circle fill="#FFFFFF" stroke="#000000" stroke-width="0.0283" stroke-miterlimit="10" cx="969.349" cy="680.151" r="7.086"/>
	<circle fill="#FFFFFF" stroke="#000000" stroke-width="0.0283" stroke-miterlimit="10" cx="988.668" cy="637.02" r="7.086"/>
</g>
<g>
	<path fill="#FFFFFF" stroke="#000000" stroke-width="0.0283" stroke-miterlimit="10" d="M553.355,723.741
		c0,6.535-5.299,11.834-11.834,11.834H275.435c-6.537,0-11.835-5.299-11.835-11.834v-33.025c0-6.535,5.298-11.834,11.835-11.834
		h266.087c6.535,0,11.834,5.299,11.834,11.834V723.741z"/>
	<circle fill="#FFFFFF" stroke="#000000" stroke-width="0.0283" stroke-miterlimit="10" cx="408.478" cy="707.229" r="7.087"/>
	<circle fill="#FFFFFF" stroke="#000000" stroke-width="0.0283" stroke-miterlimit="10" cx="455.737" cy="707.229" r="7.086"/>
	<circle fill="#FFFFFF" stroke="#000000" stroke-width="0.0283" stroke-miterlimit="10" cx="502.997" cy="707.229" r="7.086"/>
	<circle fill="#FFFFFF" stroke="#000000" stroke-width="0.0283" stroke-miterlimit="10" cx="313.959" cy="707.229" r="7.086"/>
	<circle fill="#FFFFFF" stroke="#000000" stroke-width="0.0283" stroke-miterlimit="10" cx="361.219" cy="707.229" r="7.086"/>
</g>
<g>
	<path fill="#FFFFFF" stroke="#000000" stroke-width="0.0283" stroke-miterlimit="10" d="M423.752,89.674
		c0-14.362-11.72-26.222-26.916-28.084c-0.876-0.17-1.781-0.263-2.712-0.263H232.843c-7.17,0-12.984,5.299-12.983,11.834v33.024
		c0,6.536,5.812,11.835,12.984,11.835l161.281-0.001c0.931,0,1.836-0.093,2.712-0.262
		C412.032,115.896,423.752,104.036,423.752,89.674z"/>
	<circle fill="#FFFFFF" stroke="#000000" stroke-width="0.0283" stroke-miterlimit="10" cx="254.062" cy="89.743" r="7.086"/>
	<circle fill="#FFFFFF" stroke="#000000" stroke-width="0.0283" stroke-miterlimit="10" cx="301.322" cy="89.743" r="7.087"/>
	<circle fill="#FFFFFF" stroke="#000000" stroke-width="0.0283" stroke-miterlimit="10" cx="348.581" cy="89.743" r="7.087"/>
</g>
<g>
	<path fill="#FFFFFF" stroke="#000000" stroke-width="0.0283" stroke-miterlimit="10" d="M396.182,156.869
		c0-14.362-11.72-26.222-26.916-28.084c-0.876-0.17-1.781-0.263-2.712-0.263H205.272c-7.17,0-12.984,5.299-12.983,11.834v33.024
		c0,6.536,5.812,11.835,12.984,11.835l161.281-0.001c0.931,0,1.836-0.093,2.712-0.262
		C384.462,183.09,396.182,171.23,396.182,156.869z"/>
	<circle fill="#FFFFFF" stroke="#000000" stroke-width="0.0283" stroke-miterlimit="10" cx="226.492" cy="156.937" r="7.086"/>
	<circle fill="#FFFFFF" stroke="#000000" stroke-width="0.0283" stroke-miterlimit="10" cx="273.751" cy="156.938" r="7.087"/>
	<circle fill="#FFFFFF" stroke="#000000" stroke-width="0.0283" stroke-miterlimit="10" cx="321.01" cy="156.937" r="7.087"/>
</g>
<g>
	<path fill="#FFFFFF" stroke="#000000" stroke-width="0.0283" stroke-miterlimit="10" d="M368.611,224.063
		c0-14.362-11.72-26.222-26.916-28.084c-0.876-0.17-1.781-0.263-2.712-0.263H177.702c-7.17,0-12.984,5.299-12.983,11.834v33.024
		c0,6.536,5.812,11.835,12.984,11.835l161.281-0.001c0.931,0,1.836-0.093,2.712-0.262
		C356.892,250.285,368.611,238.424,368.611,224.063z"/>
	<circle fill="#FFFFFF" stroke="#000000" stroke-width="0.0283" stroke-miterlimit="10" cx="198.922" cy="224.131" r="7.086"/>
	<circle fill="#FFFFFF" stroke="#000000" stroke-width="0.0283" stroke-miterlimit="10" cx="246.181" cy="224.132" r="7.087"/>
	<circle fill="#FFFFFF" stroke="#000000" stroke-width="0.0283" stroke-miterlimit="10" cx="293.44" cy="224.131" r="7.087"/>
</g>
<g>
	<path fill="#FFFFFF" stroke="#000000" stroke-width="0.0283" stroke-miterlimit="10" d="M341.041,291.257
		c0-14.362-11.72-26.222-26.916-28.084c-0.876-0.17-1.781-0.263-2.712-0.263H150.132c-7.17,0-12.984,5.299-12.983,11.834v33.024
		c0,6.536,5.812,11.835,12.984,11.835l161.281-0.001c0.931,0,1.836-0.093,2.712-0.262
		C329.321,317.479,341.041,305.619,341.041,291.257z"/>
	<circle fill="#FFFFFF" stroke="#000000" stroke-width="0.0283" stroke-miterlimit="10" cx="171.351" cy="291.326" r="7.086"/>
	<circle fill="#FFFFFF" stroke="#000000" stroke-width="0.0283" stroke-miterlimit="10" cx="218.611" cy="291.326" r="7.087"/>
	<circle fill="#FFFFFF" stroke="#000000" stroke-width="0.0283" stroke-miterlimit="10" cx="265.87" cy="291.326" r="7.087"/>
</g>
<g>
	<path fill="#FFFFFF" stroke="#000000" stroke-width="0.0283" stroke-miterlimit="10" d="M313.471,358.452
		c0-14.362-11.72-26.222-26.916-28.084c-0.876-0.17-1.781-0.263-2.712-0.263H122.562c-7.17,0-12.984,5.299-12.983,11.834v33.024
		c0,6.536,5.812,11.835,12.984,11.835l161.281-0.001c0.931,0,1.836-0.093,2.712-0.262
		C301.751,384.673,313.471,372.813,313.471,358.452z"/>
	<circle fill="#FFFFFF" stroke="#000000" stroke-width="0.0283" stroke-miterlimit="10" cx="143.781" cy="358.52" r="7.086"/>
	<circle fill="#FFFFFF" stroke="#000000" stroke-width="0.0283" stroke-miterlimit="10" cx="191.041" cy="358.521" r="7.087"/>
	<circle fill="#FFFFFF" stroke="#000000" stroke-width="0.0283" stroke-miterlimit="10" cx="238.299" cy="358.52" r="7.087"/>
</g>
<g>
	<path fill="#FFFFFF" stroke="#000000" stroke-width="0.0283" stroke-miterlimit="10" d="M285.9,425.646
		c0-14.362-11.72-26.222-26.916-28.084c-0.876-0.17-1.781-0.263-2.712-0.263H94.991c-7.17,0-12.984,5.299-12.983,11.834v33.025
		c0,6.535,5.812,11.834,12.984,11.834h161.281c0.931,0,1.836-0.094,2.712-0.262C274.181,451.867,285.9,440.008,285.9,425.646z"/>
	<circle fill="#FFFFFF" stroke="#000000" stroke-width="0.0283" stroke-miterlimit="10" cx="116.211" cy="425.714" r="7.086"/>
	<circle fill="#FFFFFF" stroke="#000000" stroke-width="0.0283" stroke-miterlimit="10" cx="163.47" cy="425.715" r="7.087"/>
	<circle fill="#FFFFFF" stroke="#000000" stroke-width="0.0283" stroke-miterlimit="10" cx="210.729" cy="425.714" r="7.086"/>
</g>
<g>
	<path fill="#FFFFFF" stroke="#000000" stroke-width="0.0283" stroke-miterlimit="10" d="M258.33,492.84
		c0-14.361-11.72-26.221-26.916-28.084c-0.876-0.17-1.781-0.262-2.712-0.262H67.421c-7.17,0-12.984,5.299-12.983,11.834v33.024
		c0,6.535,5.812,11.834,12.984,11.834h161.281c0.931,0,1.836-0.094,2.712-0.262C246.61,519.062,258.33,507.202,258.33,492.84z"/>
	<circle fill="#FFFFFF" stroke="#000000" stroke-width="0.0283" stroke-miterlimit="10" cx="88.64" cy="492.909" r="7.086"/>
	<circle fill="#FFFFFF" stroke="#000000" stroke-width="0.0283" stroke-miterlimit="10" cx="135.9" cy="492.91" r="7.087"/>
	<circle fill="#FFFFFF" stroke="#000000" stroke-width="0.0283" stroke-miterlimit="10" cx="183.159" cy="492.909" r="7.086"/>
</g>
<g>
	<path fill="#FFFFFF" stroke="#000000" stroke-width="0.0283" stroke-miterlimit="10" d="M905.516,597.426
		c11.07,11.07,29.098,10.99,40.168-0.08s11.07-29.018,0-40.088L784.559,396.985H331.016c-15.655,0-28.347,12.691-28.347,28.347
		s12.691,28.347,28.347,28.347H761.77L905.516,597.426"/>
	<circle fill="#FFFFFF" stroke="#000000" stroke-width="0.0283" stroke-miterlimit="10" cx="330.893" cy="425.395" r="8.504"/>
	<circle fill="#FFFFFF" stroke="#000000" stroke-width="0.0283" stroke-miterlimit="10" cx="728.469" cy="425.395" r="8.504"/>
	<circle fill="#FFFFFF" stroke="#000000" stroke-width="0.0283" stroke-miterlimit="10" cx="825.65" cy="477.449" r="7.086"/>
	<circle fill="#FFFFFF" stroke="#000000" stroke-width="0.0283" stroke-miterlimit="10" cx="859.068" cy="510.867" r="7.086"/>
	<circle fill="#FFFFFF" stroke="#000000" stroke-width="0.0283" stroke-miterlimit="10" cx="892.485" cy="544.283" r="7.087"/>
	<circle fill="#FFFFFF" stroke="#000000" stroke-width="0.0283" stroke-miterlimit="10" cx="529.681" cy="425.445" r="7.086"/>
	<circle fill="#FFFFFF" stroke="#000000" stroke-width="0.0283" stroke-miterlimit="10" cx="576.94" cy="425.445" r="7.086"/>
	<circle fill="#FFFFFF" stroke="#000000" stroke-width="0.0283" stroke-miterlimit="10" cx="624.2" cy="425.445" r="7.086"/>
	<circle fill="#FFFFFF" stroke="#000000" stroke-width="0.0283" stroke-miterlimit="10" cx="435.162" cy="425.445" r="7.086"/>
	<circle fill="#FFFFFF" stroke="#000000" stroke-width="0.0283" stroke-miterlimit="10" cx="482.421" cy="425.445" r="7.086"/>
</g>
<g>
	<path fill="#FFFFFF" stroke="#000000" stroke-width="0.0283" stroke-miterlimit="10" d="M878.517,664.57
		c11.07,11.07,29.098,10.99,40.168-0.08s11.07-29.018,0-40.088L757.56,464.129H304.017c-15.655,0-28.347,12.691-28.347,28.348
		c0,15.654,12.691,28.346,28.347,28.346h430.754L878.517,664.57"/>
	<circle fill="#FFFFFF" stroke="#000000" stroke-width="0.0283" stroke-miterlimit="10" cx="303.894" cy="492.539" r="8.504"/>
	<circle fill="#FFFFFF" stroke="#000000" stroke-width="0.0283" stroke-miterlimit="10" cx="701.47" cy="492.539" r="8.504"/>
	<circle fill="#FFFFFF" stroke="#000000" stroke-width="0.0283" stroke-miterlimit="10" cx="798.651" cy="544.594" r="7.086"/>
	<circle fill="#FFFFFF" stroke="#000000" stroke-width="0.0283" stroke-miterlimit="10" cx="832.069" cy="578.012" r="7.086"/>
	<circle fill="#FFFFFF" stroke="#000000" stroke-width="0.0283" stroke-miterlimit="10" cx="865.486" cy="611.428" r="7.087"/>
	<circle fill="#FFFFFF" stroke="#000000" stroke-width="0.0283" stroke-miterlimit="10" cx="502.682" cy="492.589" r="7.086"/>
	<circle fill="#FFFFFF" stroke="#000000" stroke-width="0.0283" stroke-miterlimit="10" cx="549.941" cy="492.589" r="7.086"/>
	<circle fill="#FFFFFF" stroke="#000000" stroke-width="0.0283" stroke-miterlimit="10" cx="597.201" cy="492.589" r="7.086"/>
	<circle fill="#FFFFFF" stroke="#000000" stroke-width="0.0283" stroke-miterlimit="10" cx="408.163" cy="492.589" r="7.087"/>
	<circle fill="#FFFFFF" stroke="#000000" stroke-width="0.0283" stroke-miterlimit="10" cx="455.422" cy="492.589" r="7.086"/>
</g>
</svg>
